<svg width="514" height="53" viewBox="0 0 514 53" fill="none" xmlns="http://www.w3.org/2000/svg">
<path d="M502.488 52.5608V0.365784H513.073V52.5608H502.488Z" fill="#001B6C"/>
<path d="M455.814 52.5608C451.872 52.5608 448.855 51.5631 446.762 49.5678C444.67 47.5725 443.623 44.7255 443.623 41.0268C443.623 37.3768 444.67 34.5541 446.762 32.5588C448.855 30.5635 451.872 29.5658 455.814 29.5658H483.846V27.8138C483.846 24.8451 482.386 23.3608 479.466 23.3608H448.514V14.9658H482.24C486.669 14.9658 489.808 15.9878 491.657 18.0318C493.507 20.0271 494.431 22.8498 494.431 26.4998V52.5608H455.814ZM457.712 44.1658H483.846V37.9608H457.712C456.788 37.9608 456.058 38.2528 455.522 38.8368C455.036 39.3721 454.792 40.1021 454.792 41.0268C454.792 41.9515 455.036 42.7058 455.522 43.2898C456.058 43.8738 456.788 44.1658 457.712 44.1658Z" fill="#001B6C"/>
<path d="M424.457 52.5608C420.223 52.5608 417.109 51.5145 415.113 49.4218C413.118 47.2805 412.12 44.4821 412.12 41.0268V23.3608H401.243V14.9658H412.12V3.43179H422.705V14.9658H438.327V23.3608H422.705V39.7128C422.705 42.6815 424.165 44.1658 427.085 44.1658H440.371V52.5608H424.457Z" fill="#001B6C"/>
<path d="M352.139 52.5608V14.9658H384.916C389.199 14.9658 392.314 16.0365 394.26 18.1778C396.256 20.2705 397.253 23.0445 397.253 26.4998V52.5608H386.668V27.7408C386.668 24.8208 385.208 23.3608 382.288 23.3608H362.724V52.5608H352.139Z" fill="#001B6C"/>
<path d="M314.095 52.9258C307.574 52.9258 302.488 51.3198 298.838 48.1078C295.188 44.8471 293.363 40.0778 293.363 33.7998C293.363 27.4731 295.188 22.7038 298.838 19.4918C302.488 16.2311 307.574 14.6008 314.095 14.6008H332.345C336.628 14.6008 339.888 15.6228 342.127 17.6668C344.414 19.6621 345.558 22.5335 345.558 26.2808C345.558 33.9215 341.154 37.7418 332.345 37.7418H304.751C305.773 42.2678 308.888 44.5308 314.095 44.5308H343.66V52.9258H314.095ZM314.095 22.9958C309.082 22.9958 305.992 25.1128 304.824 29.3468H331.834C332.807 29.3468 333.562 29.0548 334.097 28.4708C334.681 27.8868 334.973 27.0838 334.973 26.0618C334.973 24.0178 333.927 22.9958 331.834 22.9958H314.095Z" fill="#001B6C"/>
<path d="M246.489 52.5608V14.9658H275.251C279.485 14.9658 282.6 16.0365 284.595 18.1778C286.59 20.2705 287.588 23.0445 287.588 26.4998V34.3108H276.857V27.8138C276.857 24.8938 275.397 23.4338 272.477 23.4338H257.22V52.5608H246.489Z" fill="#001B6C"/>
<path d="M165.333 52.9258V44.5308H201.103C203.147 44.5308 204.169 43.3871 204.169 41.0998C204.169 38.8611 203.147 37.7418 201.103 37.7418H177.962C173.631 37.7418 170.346 36.7685 168.107 34.8218C165.868 32.8265 164.749 29.9795 164.749 26.2808C164.749 22.5335 165.868 19.6621 168.107 17.6668C170.394 15.6228 173.679 14.6008 177.962 14.6008H211.25V22.9958H178.473C176.38 22.9958 175.334 24.0178 175.334 26.0618C175.334 27.0838 175.626 27.8868 176.21 28.4708C176.794 29.0548 177.548 29.3468 178.473 29.3468H203.001C206.797 29.3468 209.693 30.3445 211.688 32.3398C213.732 34.2865 214.754 37.1335 214.754 40.8808C214.754 44.6768 213.732 47.6455 211.688 49.7868C209.644 51.8795 206.748 52.9258 203.001 52.9258H165.333Z" fill="#001B6C"/>
<path d="M119.666 52.5608V14.9658H148.428C152.662 14.9658 155.777 16.0365 157.772 18.1778C159.767 20.2705 160.765 23.0445 160.765 26.4998V34.3108H150.034V27.8138C150.034 24.8938 148.574 23.4338 145.654 23.4338H130.397V52.5608H119.666Z" fill="#001B6C"/>
<path d="M72.992 52.5608C69.05 52.5608 66.0327 51.5631 63.94 49.5678C61.8474 47.5725 60.801 44.7255 60.801 41.0268C60.801 37.3768 61.8474 34.5541 63.94 32.5588C66.0327 30.5635 69.05 29.5658 72.992 29.5658H101.024V27.8138C101.024 24.8451 99.564 23.3608 96.644 23.3608H65.692V14.9658H99.418C103.847 14.9658 106.986 15.9878 108.835 18.0318C110.684 20.0271 111.609 22.8498 111.609 26.4998V52.5608H72.992ZM74.89 44.1658H101.024V37.9608H74.89C73.9654 37.9608 73.2354 38.2528 72.7 38.8368C72.2134 39.3721 71.97 40.1021 71.97 41.0268C71.97 41.9515 72.2134 42.7058 72.7 43.2898C73.2354 43.8738 73.9654 44.1658 74.89 44.1658Z" fill="#001B6C"/>
<path d="M29.784 52.9258C20.148 52.9258 12.775 50.7115 7.665 46.2828C2.555 41.8055 0 35.1868 0 26.4268C0 17.7155 2.555 11.1211 7.665 6.64379C12.775 2.16645 20.148 -0.0478811 29.784 0.000784926L56.064 0.146783V9.49079H30.587C24.2603 9.49079 19.564 10.8291 16.498 13.5058C13.432 16.1825 11.899 20.4895 11.899 26.4268C11.899 32.3641 13.432 36.6955 16.498 39.4208C19.564 42.0975 24.2603 43.4358 30.587 43.4358H56.794V52.9258H29.784Z" fill="#001B6C"/>
</svg>
